<svg xmlns="http://www.w3.org/2000/svg" height="125.66" width="125.13" viewBox="0 0 125.13 125.66"><path fill="#302e2f" d="M67.26 67.52h57.87v10.78h-57.87zM67.26 83.16h57.87v11h-57.87zM67.26 114.88h57.87v10.78h-57.87zM67.26 99.02h57.87v11h-57.87zM0 0h26.51v26.64h-26.51zM31.36 0h26.51v26.64h-26.51zM31.36 31.5h26.51v26.64h-26.51zM0 31.5h26.51v26.64h-26.51z"/><path d="M67.25 0v58.14h57.87v-58.14zm49.65 43.16h-16.85v-4.86h16.85zM0 67.52v17a30.46 30.46 0 0 1 6.69-2.51l-.05-6.48a36.9 36.9 0 0 1 14.69-.06v6.49a31 31 0 0 1 9.05 3.77l4.51-4.6a37.61 37.61 0 0 1 10.37 10.4l-4.54 4.63a31.66 31.66 0 0 1 3.51 8.38h6.47a37.52 37.52 0 0 1 .23 14.69h-6.44a31.32 31.32 0 0 1-2.21 6.43h15.53v-58.14zM8.43 88.29a24.38 24.38 0 0 0-8.43 3.84v5.5a20.44 20.44 0 0 1 29.72 28h5.28a24.75 24.75 0 0 0-26.52-37.37zM20.71 124.19l.66-.35a14 14 0 0 0 1.41-1l.83-.8a13.4 13.4 0 0 0 4.06-8.7v-.9a13.6 13.6 0 0 0-.28-2.86l-.08-.5a14.08 14.08 0 0 0-.53-1.67l-.23-.47a13.58 13.58 0 0 0-10.79-8l-.65-.1h-1.75l-.73.1a13.18 13.18 0 0 0-2.58.56 13.5 13.5 0 0 0-7.95 6.75l-.52 1a13.45 13.45 0 0 0-.55 1.66l-.11.64a13.79 13.79 0 0 0-.3 2.59v1.29a13.49 13.49 0 0 0 3.94 8.5l.81.81a14.12 14.12 0 0 0 1.41 1l.66.35a13.49 13.49 0 0 0 4.44 1.56h4.44a13.52 13.52 0 0 0 4.39-1.46z" class="b" fill="#067466"/></svg>