<svg xmlns="http://www.w3.org/2000/svg" viewBox="0 0 446.01 125.66"><path fill="#302e2f" d="M67.26 67.52h57.87v10.78h-57.87zm0 15.64h57.87v11h-57.87zm0 31.72h57.87v10.78h-57.87zm0-15.86h57.87v11h-57.87zm-67.26-99.02h26.51v26.64h-26.51zm31.36 0h26.51v26.64h-26.51zm0 31.5h26.51v26.64h-26.51zm-31.36 0h26.51v26.64h-26.51z"/><path fill="#067466" d="M67.25 0v58.14h57.87v-58.14zm49.65 43.16h-16.85v-4.86h16.85z"/><path fill="#067466" d="M177 304.69v17a30.46 30.46 0 0 1 6.69-2.51l-.05-6.48a36.9 36.9 0 0 1 14.69-.06v6.49a31 31 0 0 1 9.05 3.77l4.51-4.6a37.61 37.61 0 0 1 10.37 10.4l-4.54 4.63a31.66 31.66 0 0 1 3.51 8.38h6.47a37.52 37.52 0 0 1 .23 14.69h-6.44a31.32 31.32 0 0 1-2.21 6.43h15.53v-58.14zm8.43 20.77a24.38 24.38 0 0 0-8.43 3.84v5.5a20.44 20.44 0 0 1 29.72 28h5.28a24.75 24.75 0 0 0-26.52-37.37zm12.28 35.9l.66-.35a14 14 0 0 0 1.41-1l.83-.8a13.4 13.4 0 0 0 4.06-8.7v-.9a13.6 13.6 0 0 0-.28-2.86l-.08-.5a14.08 14.08 0 0 0-.53-1.67l-.23-.47a13.58 13.58 0 0 0-10.79-8l-.65-.1h-1.75l-.73.1a13.18 13.18 0 0 0-2.58.56 13.5 13.5 0 0 0-7.95 6.75l-.52 1a13.45 13.45 0 0 0-.55 1.66l-.11.64a13.79 13.79 0 0 0-.3 2.59v1.29a13.49 13.49 0 0 0 3.94 8.5l.81.81a14.12 14.12 0 0 0 1.41 1l.66.35a13.49 13.49 0 0 0 4.44 1.56h4.44a13.52 13.52 0 0 0 4.39-1.46zm148.35-22.27v2.51c0 2.06-.9 3-2.88 3h-10.68v-15.67h10.25c2 0 2.88.94 2.88 3v1.77a2.62 2.62 0 0 1-1.27 2.62c1.14.31 1.7 1.23 1.7 2.77zm-11.75-8.64v5.24h7.79c1.27 0 1.72-.47 1.72-1.79v-1.66c0-1.32-.45-1.79-1.72-1.79zm9.94 8.42c0-1.32-.45-1.79-1.72-1.79h-8.22v6h8.22c1.27 0 1.72-.47 1.72-1.79z" transform="translate(-177 -237.17)"/><path fill="#067466" d="M196.74 107.43l-1.83-4.05h-9l-1.83 4.05h-1.92l7.34-15.67h1.94l7.34 15.67zm-10.16-5.55h7.64l-3.81-8.46zm29.09 5.55c-2.65 0-3.83-1.21-3.83-4v-11.67h1.81v11.39c0 1.95.67 2.64 2.54 2.64h5.08c1.87 0 2.54-.69 2.54-2.64v-11.39h1.81v11.68c0 2.78-1.19 4-3.83 4zm26.86-1.6h10.37v1.59h-12.18v-15.66h12v1.59h-10.19v5.12h9.3v1.51h-9.3zm26.71-.08h9.29v1.68h-11.1v-15.67h1.81zm25.24.08h10.37v1.59h-12.18v-15.66h12v1.59h-10.19v5.12h9.29v1.51h-9.29zm39.73-14.07h1.52v15.67h-1.73v-12.47l-5.94 9.18h-1l-6-9.18v12.47h-1.72v-15.67h1.66l6.63 10.36zm18.63 14.07h10.38v1.59h-12.22v-15.66h12v1.59h-10.16v5.12h9.3v1.51h-9.3zm37.34-14.07h1.76v15.67h-1.42l-11-12.85v12.85h-1.76v-15.67h1.52l10.92 12.71zm29.51 0v1.68h-5.9v14h-1.79v-14h-5.9v-1.68zm15.94 14.07h10.37v1.59h-12.18v-15.66h12v1.59h-10.19v5.12h9.3v1.51h-9.3z"/><path fill="#302e2f" d="M155.5 18.23v57.55h11.31v-41.39l35.18 41.39h9.67v-57.55h-11.31v40.62l-34.5-40.62h-10.35zm152.4 0h-11.82v57.55h43.4v-10.42h-31.58v-47.13zm26.56 10.42h20.33v47.13h11.81v-47.13h20.32v-10.42h-52.46v10.42zm-72.97-10.42h-14.48l-24.89 57.55h12.38l3.03-7.86 1.25-3.24h.01l3.25-8.35 11.74-30.23 11.85 30.23h-13.09l-3.24 8.35h19.58l4.28 11.1h13.14l-24.81-57.55zm159.65 0h-14.49l-24.88 57.55h12.37l3.04-7.86 1.25-3.24h.01l3.24-8.35 11.75-30.23 11.85 30.23h-13.09l-3.25 8.35h19.58l4.29 11.1h13.13l-24.8-57.55z"/></svg>